# xmcd
#
# Track frame offsets: 
#        150
#        21888
#        40291
#        58065
#        79378
#        97701
#        119108
#        139586
#        162231
#        183571
#
# Disc length: 2757 seconds
#
# Revision: 2
# Processed by: cddbd v1.5.1PL0 Copyright (c) Steve Scherf et al.
# Submitted via: ExactAudioCopy v0.95a5
#
DISCID=860ac30a
DTITLE=Maylee Thomas - Rythm of th Blues
DYEAR=2000
DGENRE=Blues
TTITLE0=Beyond my wildest dreams
TTITLE1=I can stand a little rain
TTITLE2=Rythm of the blues
TTITLE3=Soul shine
TTITLE4=The real thing
TTITLE5=I`ve got you
TTITLE6=Wrong man
TTITLE7=Every little bit hurts
TTITLE8=Midnight rider
TTITLE9=Piece of my heart
EXTD=
EXTT0=
EXTT1=
EXTT2=
EXTT3=
EXTT4=
EXTT5=
EXTT6=
EXTT7=
EXTT8=
EXTT9=
PLAYORDER=
